name D:\PhD\Datasets\SharingData_IBEC_VALDUCE\RM1_Healthy_0001.mot
datacolumns 46
datarows 7
range 5.01000000 5.07000000
endheader
                time	         pelvis_tilt	     pelvis_rotation	           pelvis_tx	           pelvis_ty	           pelvis_tz	       hip_flexion_r	     hip_adduction_r	      hip_rotation_r	        knee_angle_r	       ankle_angle_r	    subtalar_angle_r	         mtp_angle_r	       hip_flexion_l	     hip_adduction_l	      hip_rotation_l	        knee_angle_l	       ankle_angle_l	    subtalar_angle_l	         mtp_angle_l	    lumbar_extension	      lumbar_bending	     lumbar_rotation	          arm_flex_r	           arm_add_r	           arm_rot_r	        elbow_flex_r	           pro_sup_r	        wrist_flex_r	         wrist_dev_r	          arm_flex_l	           arm_add_l	           arm_rot_l	        elbow_flex_l	           pro_sup_l	        wrist_flex_l	         wrist_dev_l	          end_eff_tx	          end_eff_ty	          end_eff_tz	             goal_tx	             goal_ty	             goal_tz	            elbow_tx	            elbow_ty	            elbow_tz	
          5.01000000	          0.00000000	          0.00000000	        305.71693296	        513.80579465	        348.72757482	          0.00000000	          0.00000000	          0.00000000	          0.00000000	          0.00000000	          0.00000000	          0.00000000	          0.00000000	          0.00000000	          0.00000000	          0.00000000	          0.00000000	          0.00000000	          0.00000000	          8.23826218	         -4.63336372	         -3.98711991	         65.28701782	        -16.34683800	         25.07188034	         26.53688049	         80.31237030	          0.00000000	          0.00000000	          0.00000000	          0.00000000	          0.00000000	          0.00000000	          0.00000000	          0.00000000	          0.00000000	        879.01035597	        675.51008993	        571.66469320	        885.08117169	        674.41203338	        571.19813341	        487.72725364	        562.13105665	        618.56479014	
          5.02000000	          0.00000000	          0.00000000	        305.77093299	        513.80986601	        348.68072683	          0.00000000	          0.00000000	          0.00000000	          0.00000000	          0.00000000	          0.00000000	          0.00000000	          0.00000000	          0.00000000	          0.00000000	          0.00000000	          0.00000000	          0.00000000	          0.00000000	          8.24381351	         -4.64489603	         -3.96804118	         65.31705475	        -16.31546974	         25.06155968	         26.42284966	         80.28069305	          0.00000000	          0.00000000	          0.00000000	          0.00000000	          0.00000000	          0.00000000	          0.00000000	          0.00000000	          0.00000000	        879.21086071	        675.47340779	        571.50584273	        885.23516365	        674.32873809	        571.22238626	        487.86891280	        562.31527588	        618.24120049	
          5.03000000	          0.00000000	          0.00000000	        305.78281301	        513.79279495	        348.62154975	          0.00000000	          0.00000000	          0.00000000	          0.00000000	          0.00000000	          0.00000000	          0.00000000	          0.00000000	          0.00000000	          0.00000000	          0.00000000	          0.00000000	          0.00000000	          0.00000000	          8.25756931	         -4.66113138	         -3.94768429	         65.32559967	        -16.27050591	         25.04968071	         26.33725929	         80.21894073	          0.00000000	          0.00000000	          0.00000000	          0.00000000	          0.00000000	          0.00000000	          0.00000000	          0.00000000	          0.00000000	        879.47607731	        675.30717867	        571.30932928	        885.42498553	        674.33167388	        571.07792934	        488.03740091	        562.40615883	        617.98483617	
          5.04000000	          0.00000000	          0.00000000	        305.80812144	        513.78912311	        348.56191194	          0.00000000	          0.00000000	          0.00000000	          0.00000000	          0.00000000	          0.00000000	          0.00000000	          0.00000000	          0.00000000	          0.00000000	          0.00000000	          0.00000000	          0.00000000	          0.00000000	          8.28080654	         -4.65450239	         -3.93857861	         65.36051178	        -16.24083519	         25.09072113	         26.24583626	         80.30177307	          0.00000000	          0.00000000	          0.00000000	          0.00000000	          0.00000000	          0.00000000	          0.00000000	          0.00000000	          0.00000000	        879.75196077	        675.10389865	        571.07331697	        885.64933300	        674.36234640	        570.95167266	        488.19495314	        562.57794962	        617.73171900	
          5.05000000	          0.00000000	          0.00000000	        305.82434698	        513.79084936	        348.49561763	          0.00000000	          0.00000000	          0.00000000	          0.00000000	          0.00000000	          0.00000000	          0.00000000	          0.00000000	          0.00000000	          0.00000000	          0.00000000	          0.00000000	          0.00000000	          0.00000000	          8.29915237	         -4.64683580	         -3.93774199	         65.38808441	        -16.21566391	         25.12727165	         26.13219070	         80.38506317	          0.00000000	          0.00000000	          0.00000000	          0.00000000	          0.00000000	          0.00000000	          0.00000000	          0.00000000	          0.00000000	        880.03896764	        674.97940421	        570.95157714	        885.75090157	        674.35574111	        570.87526267	        488.33852310	        562.77663108	        617.40733535	
          5.06000000	          0.00000000	          0.00000000	        305.84094267	        513.77382163	        348.45578908	          0.00000000	          0.00000000	          0.00000000	          0.00000000	          0.00000000	          0.00000000	          0.00000000	          0.00000000	          0.00000000	          0.00000000	          0.00000000	          0.00000000	          0.00000000	          0.00000000	          8.31624508	         -4.65898609	         -3.92080188	         65.39878845	        -16.18836212	         25.14426804	         26.06387329	         80.37704468	          0.00000000	          0.00000000	          0.00000000	          0.00000000	          0.00000000	          0.00000000	          0.00000000	          0.00000000	          0.00000000	        880.23974695	        674.90306407	        570.78805979	        885.80175023	        674.34124447	        570.86214431	        488.50846756	        562.91682320	        617.11712479	
          5.07000000	          0.00000000	          0.00000000	        305.90064994	        513.82503130	        348.39427621	          0.00000000	          0.00000000	          0.00000000	          0.00000000	          0.00000000	          0.00000000	          0.00000000	          0.00000000	          0.00000000	          0.00000000	          0.00000000	          0.00000000	          0.00000000	          0.00000000	          8.17529392	         -4.64734793	         -3.93535781	         65.56472015	        -16.14415359	         25.17895126	         25.98413467	         80.25437164	          0.00000000	          0.00000000	          0.00000000	          0.00000000	          0.00000000	          0.00000000	          0.00000000	          0.00000000	          0.00000000	        880.39529785	        674.83521084	        570.68045126	        885.83150788	        674.35484463	        570.88578961	        488.66881962	        563.00830809	        616.86172199	
